# xmcd
#
# Track frame offsets: 
#        150
#        14166
#        28526
#        43095
#        60981
#        86757
#        105244
#        126277
#        141331
#        152848
#        173677
#
# Disc length: 2808 seconds
#
# Revision: 0
# Processed by: cddbd v1.5.2PL0 Copyright (c) Steve Scherf et al.
# Submitted via: ExactAudioCopyFreeDBPlugin 1.0
#
DISCID=8d0af60b
DTITLE=Xander And The Peace Pirates - 11:11
DYEAR=2016
DGENRE=Blues
TTITLE0=Mindscape
TTITLE1=Fire
TTITLE2=I'll Be Here
TTITLE3=Night Dress
TTITLE4=Rain
TTITLE5=Dance With The Devil
TTITLE6=Truth Lies
TTITLE7=Let Go
TTITLE8=Dancing In The Light
TTITLE9=Shadows
TTITLE10=The Light
EXTD=
EXTT0=
EXTT1=
EXTT2=
EXTT3=
EXTT4=
EXTT5=
EXTT6=
EXTT7=
EXTT8=
EXTT9=
EXTT10=
PLAYORDER=
